<?xml version="1.0" encoding="UTF-8"?><svg xmlns="http://www.w3.org/2000/svg" xmlns:xlink="http://www.w3.org/1999/xlink" fill-opacity="1" color-rendering="auto" color-interpolation="auto" text-rendering="auto" stroke="black" stroke-linecap="square" width="1289" stroke-miterlimit="10" shape-rendering="auto" stroke-opacity="1" fill="black" stroke-dasharray="none" font-weight="normal" stroke-width="1" height="325" font-family="'Dialog'" font-style="normal" stroke-linejoin="miter" font-size="12px" stroke-dashoffset="0" image-rendering="auto">
  <!--Generated by ySVG 2.5-->
  <defs id="genericDefs"/>
  <g>
    <defs id="defs1">
      <clipPath clipPathUnits="userSpaceOnUse" id="clipPath1">
        <path d="M0 0 L1289 0 L1289 325 L0 325 L0 0 Z"/>
      </clipPath>
      <clipPath clipPathUnits="userSpaceOnUse" id="clipPath2">
        <path d="M244 92 L1533 92 L1533 417 L244 417 L244 92 Z"/>
      </clipPath>
      <clipPath clipPathUnits="userSpaceOnUse" id="clipPath3">
        <path d="M211.7328 -33.008 L211.7328 1255.9919 L-113.2672 1255.9919 L-113.2672 -33.008 L211.7328 -33.008 Z"/>
      </clipPath>
      <clipPath clipPathUnits="userSpaceOnUse" id="clipPath4">
        <path d="M211.5599 -62.008 L211.5599 1226.9919 L-113.4401 1226.9919 L-113.4401 -62.008 L211.5599 -62.008 Z"/>
      </clipPath>
    </defs>
    <g fill="white" text-rendering="geometricPrecision" shape-rendering="geometricPrecision" transform="translate(-244,-92)" stroke="white">
      <rect x="244" width="1289" height="325" y="92" clip-path="url(#clipPath2)" stroke="none"/>
    </g>
    <g fill="silver" text-rendering="geometricPrecision" shape-rendering="geometricPrecision" transform="matrix(1,0,0,1,-244,-92)" stroke="silver">
      <rect x="271.8" width="29" height="72" y="242.89" clip-path="url(#clipPath2)" stroke="none"/>
    </g>
    <g text-rendering="geometricPrecision" stroke-miterlimit="1.45" shape-rendering="geometricPrecision" transform="matrix(1,0,0,1,-244,-92)" stroke-linecap="butt">
      <rect fill="none" x="271.8" width="29" height="72" y="242.89" clip-path="url(#clipPath2)"/>
    </g>
    <g text-rendering="geometricPrecision" stroke-miterlimit="1.45" shape-rendering="geometricPrecision" font-family="sans-serif" transform="matrix(-0,-1,1,-0,33.008,211.7328)" stroke-linecap="butt">
      <text x="2" xml:space="preserve" y="14.0645" clip-path="url(#clipPath3)" stroke="none">Current</text>
    </g>
    <g fill="gray" text-rendering="geometricPrecision" shape-rendering="geometricPrecision" transform="matrix(1,0,0,1,-244,-92)" stroke="gray">
      <rect x="408.2175" width="72.165" height="72.165" y="242.3276" clip-path="url(#clipPath2)" stroke="none"/>
    </g>
    <g text-rendering="geometricPrecision" stroke-miterlimit="1.45" shape-rendering="geometricPrecision" transform="matrix(1,0,0,1,-244,-92)" stroke-linecap="butt">
      <rect fill="none" x="408.2175" width="72.165" height="72.165" y="242.3276" clip-path="url(#clipPath2)"/>
    </g>
    <g fill="gray" text-rendering="geometricPrecision" shape-rendering="geometricPrecision" transform="matrix(1,0,0,1,-244,-92)" stroke="gray">
      <rect x="422.37" width="72.0201" height="72.0201" y="251.99" clip-path="url(#clipPath2)" stroke="none"/>
    </g>
    <g text-rendering="geometricPrecision" stroke-miterlimit="1.45" shape-rendering="geometricPrecision" transform="matrix(1,0,0,1,-244,-92)" stroke-linecap="butt">
      <rect fill="none" x="422.37" width="72.0201" height="72.0201" y="251.99" clip-path="url(#clipPath2)"/>
    </g>
    <g fill="rgb(204,204,204)" text-rendering="geometricPrecision" shape-rendering="geometricPrecision" transform="matrix(1,0,0,1,-244,-92)" stroke="rgb(204,204,204)">
      <rect x="558.8" width="50" height="50" y="263" clip-path="url(#clipPath2)" stroke="none"/>
    </g>
    <g text-rendering="geometricPrecision" stroke-miterlimit="1.45" shape-rendering="geometricPrecision" transform="matrix(1,0,0,1,-244,-92)" stroke-linecap="butt">
      <rect fill="none" x="558.8" width="50" height="50" y="263" clip-path="url(#clipPath2)"/>
    </g>
    <g fill="rgb(204,204,204)" text-rendering="geometricPrecision" shape-rendering="geometricPrecision" transform="matrix(1,0,0,1,-244,-92)" stroke="rgb(204,204,204)">
      <rect x="572.8" width="50" height="50" y="275" clip-path="url(#clipPath2)" stroke="none"/>
    </g>
    <g text-rendering="geometricPrecision" stroke-miterlimit="1.45" shape-rendering="geometricPrecision" transform="matrix(1,0,0,1,-244,-92)" stroke-linecap="butt">
      <rect fill="none" x="572.8" width="50" height="50" y="275" clip-path="url(#clipPath2)"/>
    </g>
    <g fill="rgb(204,204,204)" text-rendering="geometricPrecision" shape-rendering="geometricPrecision" transform="matrix(1,0,0,1,-244,-92)" stroke="rgb(204,204,204)">
      <rect x="671.8" width="50" height="50" y="185.5" clip-path="url(#clipPath2)" stroke="none"/>
    </g>
    <g text-rendering="geometricPrecision" stroke-miterlimit="1.45" shape-rendering="geometricPrecision" transform="matrix(1,0,0,1,-244,-92)" stroke-linecap="butt">
      <rect fill="none" x="671.8" width="50" height="50" y="185.5" clip-path="url(#clipPath2)"/>
    </g>
    <g fill="rgb(204,204,204)" text-rendering="geometricPrecision" shape-rendering="geometricPrecision" transform="matrix(1,0,0,1,-244,-92)" stroke="rgb(204,204,204)">
      <rect x="685.8" width="50" height="50" y="197.5" clip-path="url(#clipPath2)" stroke="none"/>
    </g>
    <g text-rendering="geometricPrecision" stroke-miterlimit="1.45" shape-rendering="geometricPrecision" transform="matrix(1,0,0,1,-244,-92)" stroke-linecap="butt">
      <rect fill="none" x="685.8" width="50" height="50" y="197.5" clip-path="url(#clipPath2)"/>
    </g>
    <g fill="rgb(204,204,204)" text-rendering="geometricPrecision" shape-rendering="geometricPrecision" transform="matrix(1,0,0,1,-244,-92)" stroke="rgb(204,204,204)">
      <rect x="696.8" width="50" height="50" y="210.5" clip-path="url(#clipPath2)" stroke="none"/>
    </g>
    <g text-rendering="geometricPrecision" stroke-miterlimit="1.45" shape-rendering="geometricPrecision" transform="matrix(1,0,0,1,-244,-92)" stroke-linecap="butt">
      <rect fill="none" x="696.8" width="50" height="50" y="210.5" clip-path="url(#clipPath2)"/>
    </g>
    <g fill="rgb(204,204,204)" text-rendering="geometricPrecision" shape-rendering="geometricPrecision" transform="matrix(1,0,0,1,-244,-92)" stroke="rgb(204,204,204)">
      <rect x="710.8" width="50" height="50" y="222.5" clip-path="url(#clipPath2)" stroke="none"/>
    </g>
    <g text-rendering="geometricPrecision" stroke-miterlimit="1.45" shape-rendering="geometricPrecision" transform="matrix(1,0,0,1,-244,-92)" stroke-linecap="butt">
      <rect fill="none" x="710.8" width="50" height="50" y="222.5" clip-path="url(#clipPath2)"/>
    </g>
    <g fill="rgb(204,204,204)" text-rendering="geometricPrecision" shape-rendering="geometricPrecision" transform="matrix(1,0,0,1,-244,-92)" stroke="rgb(204,204,204)">
      <rect x="721.8" width="50" height="50" y="235.5" clip-path="url(#clipPath2)" stroke="none"/>
    </g>
    <g text-rendering="geometricPrecision" stroke-miterlimit="1.45" shape-rendering="geometricPrecision" transform="matrix(1,0,0,1,-244,-92)" stroke-linecap="butt">
      <rect fill="none" x="721.8" width="50" height="50" y="235.5" clip-path="url(#clipPath2)"/>
    </g>
    <g fill="rgb(204,204,204)" text-rendering="geometricPrecision" shape-rendering="geometricPrecision" transform="matrix(1,0,0,1,-244,-92)" stroke="rgb(204,204,204)">
      <rect x="735.8" width="50" height="50" y="247.5" clip-path="url(#clipPath2)" stroke="none"/>
    </g>
    <g text-rendering="geometricPrecision" stroke-miterlimit="1.45" shape-rendering="geometricPrecision" transform="matrix(1,0,0,1,-244,-92)" stroke-linecap="butt">
      <rect fill="none" x="735.8" width="50" height="50" y="247.5" clip-path="url(#clipPath2)"/>
    </g>
    <g fill="rgb(204,204,204)" text-rendering="geometricPrecision" shape-rendering="geometricPrecision" transform="matrix(1,0,0,1,-244,-92)" stroke="rgb(204,204,204)">
      <rect x="746.8" width="50" height="50" y="260.5" clip-path="url(#clipPath2)" stroke="none"/>
    </g>
    <g text-rendering="geometricPrecision" stroke-miterlimit="1.45" shape-rendering="geometricPrecision" transform="matrix(1,0,0,1,-244,-92)" stroke-linecap="butt">
      <rect fill="none" x="746.8" width="50" height="50" y="260.5" clip-path="url(#clipPath2)"/>
    </g>
    <g fill="rgb(204,204,204)" text-rendering="geometricPrecision" shape-rendering="geometricPrecision" transform="matrix(1,0,0,1,-244,-92)" stroke="rgb(204,204,204)">
      <rect x="760.8" width="50" height="50" y="272.5" clip-path="url(#clipPath2)" stroke="none"/>
    </g>
    <g text-rendering="geometricPrecision" stroke-miterlimit="1.45" shape-rendering="geometricPrecision" transform="matrix(1,0,0,1,-244,-92)" stroke-linecap="butt">
      <rect fill="none" x="760.8" width="50" height="50" y="272.5" clip-path="url(#clipPath2)"/>
    </g>
    <g fill="rgb(204,204,204)" text-rendering="geometricPrecision" shape-rendering="geometricPrecision" transform="matrix(1,0,0,1,-244,-92)" stroke="rgb(204,204,204)">
      <rect x="771.8" width="50" height="50" y="285.5" clip-path="url(#clipPath2)" stroke="none"/>
    </g>
    <g text-rendering="geometricPrecision" stroke-miterlimit="1.45" shape-rendering="geometricPrecision" transform="matrix(1,0,0,1,-244,-92)" stroke-linecap="butt">
      <rect fill="none" x="771.8" width="50" height="50" y="285.5" clip-path="url(#clipPath2)"/>
    </g>
    <g fill="rgb(204,204,204)" text-rendering="geometricPrecision" shape-rendering="geometricPrecision" transform="matrix(1,0,0,1,-244,-92)" stroke="rgb(204,204,204)">
      <rect x="785.8" width="50" height="50" y="297.5" clip-path="url(#clipPath2)" stroke="none"/>
    </g>
    <g text-rendering="geometricPrecision" stroke-miterlimit="1.45" shape-rendering="geometricPrecision" transform="matrix(1,0,0,1,-244,-92)" stroke-linecap="butt">
      <rect fill="none" x="785.8" width="50" height="50" y="297.5" clip-path="url(#clipPath2)"/>
    </g>
    <g fill="rgb(204,204,204)" text-rendering="geometricPrecision" shape-rendering="geometricPrecision" transform="matrix(1,0,0,1,-244,-92)" stroke="rgb(204,204,204)">
      <rect x="796.8" width="50" height="50" y="310.5" clip-path="url(#clipPath2)" stroke="none"/>
    </g>
    <g text-rendering="geometricPrecision" stroke-miterlimit="1.45" shape-rendering="geometricPrecision" transform="matrix(1,0,0,1,-244,-92)" stroke-linecap="butt">
      <rect fill="none" x="796.8" width="50" height="50" y="310.5" clip-path="url(#clipPath2)"/>
    </g>
    <g fill="rgb(204,204,204)" text-rendering="geometricPrecision" shape-rendering="geometricPrecision" transform="matrix(1,0,0,1,-244,-92)" stroke="rgb(204,204,204)">
      <rect x="810.8" width="50" height="50" y="322.5" clip-path="url(#clipPath2)" stroke="none"/>
    </g>
    <g text-rendering="geometricPrecision" stroke-miterlimit="1.45" shape-rendering="geometricPrecision" transform="matrix(1,0,0,1,-244,-92)" stroke-linecap="butt">
      <rect fill="none" x="810.8" width="50" height="50" y="322.5" clip-path="url(#clipPath2)"/>
    </g>
    <g fill="rgb(204,204,204)" text-rendering="geometricPrecision" shape-rendering="geometricPrecision" transform="matrix(1,0,0,1,-244,-92)" stroke="rgb(204,204,204)">
      <rect x="821.8" width="50" height="50" y="335.5" clip-path="url(#clipPath2)" stroke="none"/>
    </g>
    <g text-rendering="geometricPrecision" stroke-miterlimit="1.45" shape-rendering="geometricPrecision" transform="matrix(1,0,0,1,-244,-92)" stroke-linecap="butt">
      <rect fill="none" x="821.8" width="50" height="50" y="335.5" clip-path="url(#clipPath2)"/>
    </g>
    <g fill="rgb(204,204,204)" text-rendering="geometricPrecision" shape-rendering="geometricPrecision" transform="matrix(1,0,0,1,-244,-92)" stroke="rgb(204,204,204)">
      <rect x="835.8" width="50" height="50" y="347.5" clip-path="url(#clipPath2)" stroke="none"/>
    </g>
    <g text-rendering="geometricPrecision" stroke-miterlimit="1.45" shape-rendering="geometricPrecision" transform="matrix(1,0,0,1,-244,-92)" stroke-linecap="butt">
      <rect fill="none" x="835.8" width="50" height="50" y="347.5" clip-path="url(#clipPath2)"/>
    </g>
    <g fill="rgb(204,204,204)" text-rendering="geometricPrecision" shape-rendering="geometricPrecision" transform="matrix(1,0,0,1,-244,-92)" stroke="rgb(204,204,204)">
      <rect x="871.8" width="50" height="50" y="176" clip-path="url(#clipPath2)" stroke="none"/>
    </g>
    <g text-rendering="geometricPrecision" stroke-miterlimit="1.45" shape-rendering="geometricPrecision" transform="matrix(1,0,0,1,-244,-92)" stroke-linecap="butt">
      <rect fill="none" x="871.8" width="50" height="50" y="176" clip-path="url(#clipPath2)"/>
    </g>
    <g fill="rgb(204,204,204)" text-rendering="geometricPrecision" shape-rendering="geometricPrecision" transform="matrix(1,0,0,1,-244,-92)" stroke="rgb(204,204,204)">
      <rect x="885.8" width="50" height="50" y="188" clip-path="url(#clipPath2)" stroke="none"/>
    </g>
    <g text-rendering="geometricPrecision" stroke-miterlimit="1.45" shape-rendering="geometricPrecision" transform="matrix(1,0,0,1,-244,-92)" stroke-linecap="butt">
      <rect fill="none" x="885.8" width="50" height="50" y="188" clip-path="url(#clipPath2)"/>
    </g>
    <g fill="rgb(204,204,204)" text-rendering="geometricPrecision" shape-rendering="geometricPrecision" transform="matrix(1,0,0,1,-244,-92)" stroke="rgb(204,204,204)">
      <rect x="896.8" width="50" height="50" y="201" clip-path="url(#clipPath2)" stroke="none"/>
    </g>
    <g text-rendering="geometricPrecision" stroke-miterlimit="1.45" shape-rendering="geometricPrecision" transform="matrix(1,0,0,1,-244,-92)" stroke-linecap="butt">
      <rect fill="none" x="896.8" width="50" height="50" y="201" clip-path="url(#clipPath2)"/>
    </g>
    <g fill="rgb(204,204,204)" text-rendering="geometricPrecision" shape-rendering="geometricPrecision" transform="matrix(1,0,0,1,-244,-92)" stroke="rgb(204,204,204)">
      <rect x="910.8" width="50" height="50" y="213" clip-path="url(#clipPath2)" stroke="none"/>
    </g>
    <g text-rendering="geometricPrecision" stroke-miterlimit="1.45" shape-rendering="geometricPrecision" transform="matrix(1,0,0,1,-244,-92)" stroke-linecap="butt">
      <rect fill="none" x="910.8" width="50" height="50" y="213" clip-path="url(#clipPath2)"/>
    </g>
    <g fill="rgb(204,204,204)" text-rendering="geometricPrecision" shape-rendering="geometricPrecision" transform="matrix(1,0,0,1,-244,-92)" stroke="rgb(204,204,204)">
      <rect x="921.8" width="50" height="50" y="226" clip-path="url(#clipPath2)" stroke="none"/>
    </g>
    <g text-rendering="geometricPrecision" stroke-miterlimit="1.45" shape-rendering="geometricPrecision" transform="matrix(1,0,0,1,-244,-92)" stroke-linecap="butt">
      <rect fill="none" x="921.8" width="50" height="50" y="226" clip-path="url(#clipPath2)"/>
    </g>
    <g fill="rgb(204,204,204)" text-rendering="geometricPrecision" shape-rendering="geometricPrecision" transform="matrix(1,0,0,1,-244,-92)" stroke="rgb(204,204,204)">
      <rect x="935.8" width="50" height="50" y="238" clip-path="url(#clipPath2)" stroke="none"/>
    </g>
    <g text-rendering="geometricPrecision" stroke-miterlimit="1.45" shape-rendering="geometricPrecision" transform="matrix(1,0,0,1,-244,-92)" stroke-linecap="butt">
      <rect fill="none" x="935.8" width="50" height="50" y="238" clip-path="url(#clipPath2)"/>
    </g>
    <g fill="rgb(204,204,204)" text-rendering="geometricPrecision" shape-rendering="geometricPrecision" transform="matrix(1,0,0,1,-244,-92)" stroke="rgb(204,204,204)">
      <rect x="946.8" width="50" height="50" y="251" clip-path="url(#clipPath2)" stroke="none"/>
    </g>
    <g text-rendering="geometricPrecision" stroke-miterlimit="1.45" shape-rendering="geometricPrecision" transform="matrix(1,0,0,1,-244,-92)" stroke-linecap="butt">
      <rect fill="none" x="946.8" width="50" height="50" y="251" clip-path="url(#clipPath2)"/>
    </g>
    <g fill="rgb(204,204,204)" text-rendering="geometricPrecision" shape-rendering="geometricPrecision" transform="matrix(1,0,0,1,-244,-92)" stroke="rgb(204,204,204)">
      <rect x="960.8" width="50" height="50" y="263" clip-path="url(#clipPath2)" stroke="none"/>
    </g>
    <g text-rendering="geometricPrecision" stroke-miterlimit="1.45" shape-rendering="geometricPrecision" transform="matrix(1,0,0,1,-244,-92)" stroke-linecap="butt">
      <rect fill="none" x="960.8" width="50" height="50" y="263" clip-path="url(#clipPath2)"/>
    </g>
    <g fill="rgb(204,204,204)" text-rendering="geometricPrecision" shape-rendering="geometricPrecision" transform="matrix(1,0,0,1,-244,-92)" stroke="rgb(204,204,204)">
      <rect x="971.8" width="50" height="50" y="276" clip-path="url(#clipPath2)" stroke="none"/>
    </g>
    <g text-rendering="geometricPrecision" stroke-miterlimit="1.45" shape-rendering="geometricPrecision" transform="matrix(1,0,0,1,-244,-92)" stroke-linecap="butt">
      <rect fill="none" x="971.8" width="50" height="50" y="276" clip-path="url(#clipPath2)"/>
    </g>
    <g fill="rgb(204,204,204)" text-rendering="geometricPrecision" shape-rendering="geometricPrecision" transform="matrix(1,0,0,1,-244,-92)" stroke="rgb(204,204,204)">
      <rect x="985.8" width="50" height="50" y="288" clip-path="url(#clipPath2)" stroke="none"/>
    </g>
    <g text-rendering="geometricPrecision" stroke-miterlimit="1.45" shape-rendering="geometricPrecision" transform="matrix(1,0,0,1,-244,-92)" stroke-linecap="butt">
      <rect fill="none" x="985.8" width="50" height="50" y="288" clip-path="url(#clipPath2)"/>
    </g>
    <g fill="rgb(204,204,204)" text-rendering="geometricPrecision" shape-rendering="geometricPrecision" transform="matrix(1,0,0,1,-244,-92)" stroke="rgb(204,204,204)">
      <rect x="996.8" width="50" height="50" y="301" clip-path="url(#clipPath2)" stroke="none"/>
    </g>
    <g text-rendering="geometricPrecision" stroke-miterlimit="1.45" shape-rendering="geometricPrecision" transform="matrix(1,0,0,1,-244,-92)" stroke-linecap="butt">
      <rect fill="none" x="996.8" width="50" height="50" y="301" clip-path="url(#clipPath2)"/>
    </g>
    <g fill="rgb(204,204,204)" text-rendering="geometricPrecision" shape-rendering="geometricPrecision" transform="matrix(1,0,0,1,-244,-92)" stroke="rgb(204,204,204)">
      <rect x="1010.8" width="50" height="50" y="313" clip-path="url(#clipPath2)" stroke="none"/>
    </g>
    <g text-rendering="geometricPrecision" stroke-miterlimit="1.45" shape-rendering="geometricPrecision" transform="matrix(1,0,0,1,-244,-92)" stroke-linecap="butt">
      <rect fill="none" x="1010.8" width="50" height="50" y="313" clip-path="url(#clipPath2)"/>
    </g>
    <g fill="rgb(204,204,204)" text-rendering="geometricPrecision" shape-rendering="geometricPrecision" transform="matrix(1,0,0,1,-244,-92)" stroke="rgb(204,204,204)">
      <rect x="1021.8" width="50" height="50" y="326" clip-path="url(#clipPath2)" stroke="none"/>
    </g>
    <g text-rendering="geometricPrecision" stroke-miterlimit="1.45" shape-rendering="geometricPrecision" transform="matrix(1,0,0,1,-244,-92)" stroke-linecap="butt">
      <rect fill="none" x="1021.8" width="50" height="50" y="326" clip-path="url(#clipPath2)"/>
    </g>
    <g fill="rgb(204,204,204)" text-rendering="geometricPrecision" shape-rendering="geometricPrecision" transform="matrix(1,0,0,1,-244,-92)" stroke="rgb(204,204,204)">
      <rect x="1035.8" width="50" height="50" y="338" clip-path="url(#clipPath2)" stroke="none"/>
    </g>
    <g text-rendering="geometricPrecision" stroke-miterlimit="1.45" shape-rendering="geometricPrecision" transform="matrix(1,0,0,1,-244,-92)" stroke-linecap="butt">
      <rect fill="none" x="1035.8" width="50" height="50" y="338" clip-path="url(#clipPath2)"/>
    </g>
    <g fill="rgb(204,204,204)" text-rendering="geometricPrecision" shape-rendering="geometricPrecision" transform="matrix(1,0,0,1,-244,-92)" stroke="rgb(204,204,204)">
      <rect x="1061.8" width="50" height="50" y="181" clip-path="url(#clipPath2)" stroke="none"/>
    </g>
    <g text-rendering="geometricPrecision" stroke-miterlimit="1.45" shape-rendering="geometricPrecision" transform="matrix(1,0,0,1,-244,-92)" stroke-linecap="butt">
      <rect fill="none" x="1061.8" width="50" height="50" y="181" clip-path="url(#clipPath2)"/>
    </g>
    <g fill="rgb(204,204,204)" text-rendering="geometricPrecision" shape-rendering="geometricPrecision" transform="matrix(1,0,0,1,-244,-92)" stroke="rgb(204,204,204)">
      <rect x="1075.8" width="50" height="50" y="193" clip-path="url(#clipPath2)" stroke="none"/>
    </g>
    <g text-rendering="geometricPrecision" stroke-miterlimit="1.45" shape-rendering="geometricPrecision" transform="matrix(1,0,0,1,-244,-92)" stroke-linecap="butt">
      <rect fill="none" x="1075.8" width="50" height="50" y="193" clip-path="url(#clipPath2)"/>
    </g>
    <g fill="rgb(204,204,204)" text-rendering="geometricPrecision" shape-rendering="geometricPrecision" transform="matrix(1,0,0,1,-244,-92)" stroke="rgb(204,204,204)">
      <rect x="1086.8" width="50" height="50" y="206" clip-path="url(#clipPath2)" stroke="none"/>
    </g>
    <g text-rendering="geometricPrecision" stroke-miterlimit="1.45" shape-rendering="geometricPrecision" transform="matrix(1,0,0,1,-244,-92)" stroke-linecap="butt">
      <rect fill="none" x="1086.8" width="50" height="50" y="206" clip-path="url(#clipPath2)"/>
    </g>
    <g fill="rgb(204,204,204)" text-rendering="geometricPrecision" shape-rendering="geometricPrecision" transform="matrix(1,0,0,1,-244,-92)" stroke="rgb(204,204,204)">
      <rect x="1100.8" width="50" height="50" y="218" clip-path="url(#clipPath2)" stroke="none"/>
    </g>
    <g text-rendering="geometricPrecision" stroke-miterlimit="1.45" shape-rendering="geometricPrecision" transform="matrix(1,0,0,1,-244,-92)" stroke-linecap="butt">
      <rect fill="none" x="1100.8" width="50" height="50" y="218" clip-path="url(#clipPath2)"/>
    </g>
    <g fill="rgb(204,204,204)" text-rendering="geometricPrecision" shape-rendering="geometricPrecision" transform="matrix(1,0,0,1,-244,-92)" stroke="rgb(204,204,204)">
      <rect x="1111.8" width="50" height="50" y="231" clip-path="url(#clipPath2)" stroke="none"/>
    </g>
    <g text-rendering="geometricPrecision" stroke-miterlimit="1.45" shape-rendering="geometricPrecision" transform="matrix(1,0,0,1,-244,-92)" stroke-linecap="butt">
      <rect fill="none" x="1111.8" width="50" height="50" y="231" clip-path="url(#clipPath2)"/>
    </g>
    <g fill="rgb(204,204,204)" text-rendering="geometricPrecision" shape-rendering="geometricPrecision" transform="matrix(1,0,0,1,-244,-92)" stroke="rgb(204,204,204)">
      <rect x="1125.8" width="50" height="50" y="243" clip-path="url(#clipPath2)" stroke="none"/>
    </g>
    <g text-rendering="geometricPrecision" stroke-miterlimit="1.45" shape-rendering="geometricPrecision" transform="matrix(1,0,0,1,-244,-92)" stroke-linecap="butt">
      <rect fill="none" x="1125.8" width="50" height="50" y="243" clip-path="url(#clipPath2)"/>
    </g>
    <g fill="rgb(204,204,204)" text-rendering="geometricPrecision" shape-rendering="geometricPrecision" transform="matrix(1,0,0,1,-244,-92)" stroke="rgb(204,204,204)">
      <rect x="1136.8" width="50" height="50" y="256" clip-path="url(#clipPath2)" stroke="none"/>
    </g>
    <g text-rendering="geometricPrecision" stroke-miterlimit="1.45" shape-rendering="geometricPrecision" transform="matrix(1,0,0,1,-244,-92)" stroke-linecap="butt">
      <rect fill="none" x="1136.8" width="50" height="50" y="256" clip-path="url(#clipPath2)"/>
    </g>
    <g fill="rgb(204,204,204)" text-rendering="geometricPrecision" shape-rendering="geometricPrecision" transform="matrix(1,0,0,1,-244,-92)" stroke="rgb(204,204,204)">
      <rect x="1150.8" width="50" height="50" y="268" clip-path="url(#clipPath2)" stroke="none"/>
    </g>
    <g text-rendering="geometricPrecision" stroke-miterlimit="1.45" shape-rendering="geometricPrecision" transform="matrix(1,0,0,1,-244,-92)" stroke-linecap="butt">
      <rect fill="none" x="1150.8" width="50" height="50" y="268" clip-path="url(#clipPath2)"/>
    </g>
    <g fill="rgb(204,204,204)" text-rendering="geometricPrecision" shape-rendering="geometricPrecision" transform="matrix(1,0,0,1,-244,-92)" stroke="rgb(204,204,204)">
      <rect x="1161.8" width="50" height="50" y="281" clip-path="url(#clipPath2)" stroke="none"/>
    </g>
    <g text-rendering="geometricPrecision" stroke-miterlimit="1.45" shape-rendering="geometricPrecision" transform="matrix(1,0,0,1,-244,-92)" stroke-linecap="butt">
      <rect fill="none" x="1161.8" width="50" height="50" y="281" clip-path="url(#clipPath2)"/>
    </g>
    <g fill="rgb(204,204,204)" text-rendering="geometricPrecision" shape-rendering="geometricPrecision" transform="matrix(1,0,0,1,-244,-92)" stroke="rgb(204,204,204)">
      <rect x="1175.8" width="50" height="50" y="293" clip-path="url(#clipPath2)" stroke="none"/>
    </g>
    <g text-rendering="geometricPrecision" stroke-miterlimit="1.45" shape-rendering="geometricPrecision" transform="matrix(1,0,0,1,-244,-92)" stroke-linecap="butt">
      <rect fill="none" x="1175.8" width="50" height="50" y="293" clip-path="url(#clipPath2)"/>
    </g>
    <g fill="rgb(204,204,204)" text-rendering="geometricPrecision" shape-rendering="geometricPrecision" transform="matrix(1,0,0,1,-244,-92)" stroke="rgb(204,204,204)">
      <rect x="1186.8" width="50" height="50" y="306" clip-path="url(#clipPath2)" stroke="none"/>
    </g>
    <g text-rendering="geometricPrecision" stroke-miterlimit="1.45" shape-rendering="geometricPrecision" transform="matrix(1,0,0,1,-244,-92)" stroke-linecap="butt">
      <rect fill="none" x="1186.8" width="50" height="50" y="306" clip-path="url(#clipPath2)"/>
    </g>
    <g fill="rgb(204,204,204)" text-rendering="geometricPrecision" shape-rendering="geometricPrecision" transform="matrix(1,0,0,1,-244,-92)" stroke="rgb(204,204,204)">
      <rect x="1200.8" width="50" height="50" y="318" clip-path="url(#clipPath2)" stroke="none"/>
    </g>
    <g text-rendering="geometricPrecision" stroke-miterlimit="1.45" shape-rendering="geometricPrecision" transform="matrix(1,0,0,1,-244,-92)" stroke-linecap="butt">
      <rect fill="none" x="1200.8" width="50" height="50" y="318" clip-path="url(#clipPath2)"/>
    </g>
    <g fill="rgb(204,204,204)" text-rendering="geometricPrecision" shape-rendering="geometricPrecision" transform="matrix(1,0,0,1,-244,-92)" stroke="rgb(204,204,204)">
      <rect x="1211.8" width="50" height="50" y="331" clip-path="url(#clipPath2)" stroke="none"/>
    </g>
    <g text-rendering="geometricPrecision" stroke-miterlimit="1.45" shape-rendering="geometricPrecision" transform="matrix(1,0,0,1,-244,-92)" stroke-linecap="butt">
      <rect fill="none" x="1211.8" width="50" height="50" y="331" clip-path="url(#clipPath2)"/>
    </g>
    <g fill="rgb(204,204,204)" text-rendering="geometricPrecision" shape-rendering="geometricPrecision" transform="matrix(1,0,0,1,-244,-92)" stroke="rgb(204,204,204)">
      <rect x="1225.8" width="50" height="50" y="343" clip-path="url(#clipPath2)" stroke="none"/>
    </g>
    <g text-rendering="geometricPrecision" stroke-miterlimit="1.45" shape-rendering="geometricPrecision" transform="matrix(1,0,0,1,-244,-92)" stroke-linecap="butt">
      <rect fill="none" x="1225.8" width="50" height="50" y="343" clip-path="url(#clipPath2)"/>
    </g>
    <g fill="silver" text-rendering="geometricPrecision" shape-rendering="geometricPrecision" transform="matrix(1,0,0,1,-244,-92)" stroke="silver">
      <rect x="1467.9368" width="22" height="232" y="184.5" clip-path="url(#clipPath2)" stroke="none"/>
    </g>
    <g text-rendering="geometricPrecision" stroke-miterlimit="1.45" shape-rendering="geometricPrecision" transform="matrix(1,0,0,1,-244,-92)" stroke-linecap="butt">
      <rect fill="none" x="1467.9368" width="22" height="232" y="184.5" clip-path="url(#clipPath2)"/>
    </g>
    <g fill="silver" text-rendering="geometricPrecision" shape-rendering="geometricPrecision" transform="matrix(1,0,0,1,-244,-92)" stroke="silver">
      <rect x="300.8" width="29" height="72" y="242.89" clip-path="url(#clipPath2)" stroke="none"/>
    </g>
    <g text-rendering="geometricPrecision" stroke-miterlimit="1.45" shape-rendering="geometricPrecision" transform="matrix(1,0,0,1,-244,-92)" stroke-linecap="butt">
      <rect fill="none" x="300.8" width="29" height="72" y="242.89" clip-path="url(#clipPath2)"/>
    </g>
    <g text-rendering="geometricPrecision" stroke-miterlimit="1.45" shape-rendering="geometricPrecision" font-family="sans-serif" transform="matrix(-0,-1,1,-0,62.008,211.5599)" stroke-linecap="butt">
      <text x="2" xml:space="preserve" y="14.0645" clip-path="url(#clipPath4)" stroke="none">Voltage</text>
    </g>
    <g text-rendering="geometricPrecision" stroke-miterlimit="1.45" shape-rendering="geometricPrecision" transform="matrix(1,0,0,1,-244,-92)" stroke-linecap="butt">
      <rect fill="none" x="244.8" width="135" height="42.25" y="119.75" clip-path="url(#clipPath2)"/>
      <text x="296.0783" xml:space="preserve" y="138.3555" clip-path="url(#clipPath2)" font-family="sans-serif" stroke="none">Input</text>
      <text x="297.3058" xml:space="preserve" y="152.9395" clip-path="url(#clipPath2)" font-family="sans-serif" stroke="none">2x48</text>
      <rect fill="none" x="393.8" width="115" height="42.25" y="119.75" clip-path="url(#clipPath2)"/>
      <text x="417.4387" xml:space="preserve" y="138.3555" clip-path="url(#clipPath2)" font-family="sans-serif" stroke="none">Recurrence</text>
      <text x="425.1262" xml:space="preserve" y="152.9395" clip-path="url(#clipPath2)" font-family="sans-serif" stroke="none">2x48x48</text>
      <rect fill="none" x="521.3" width="144" height="42.25" y="119.75" clip-path="url(#clipPath2)"/>
      <text x="555.0178" xml:space="preserve" y="138.3555" clip-path="url(#clipPath2)" font-family="sans-serif" stroke="none">Conv 2@3x3</text>
      <text x="523.093" xml:space="preserve" y="152.9395" clip-path="url(#clipPath2)" font-family="sans-serif" stroke="none">ReLU + MaxPool2d 3x3</text>
      <rect fill="none" x="677.8" width="144" height="42.25" y="119.75" clip-path="url(#clipPath2)"/>
      <text x="707.7033" xml:space="preserve" y="138.3555" clip-path="url(#clipPath2)" font-family="sans-serif" stroke="none">Conv 32@3x3</text>
      <text x="734.3224" xml:space="preserve" y="152.9395" clip-path="url(#clipPath2)" font-family="sans-serif" stroke="none">ReLU</text>
      <rect fill="none" x="892.8" width="144" height="42.25" y="119.75" clip-path="url(#clipPath2)"/>
      <text x="922.7033" xml:space="preserve" y="138.3555" clip-path="url(#clipPath2)" font-family="sans-serif" stroke="none">Conv 32@3x3</text>
      <text x="899.1105" xml:space="preserve" y="152.9395" clip-path="url(#clipPath2)" font-family="sans-serif" stroke="none">ReLU + BatchNorm2d</text>
      <rect fill="none" x="1097.8" width="144" height="42.25" y="119.75" clip-path="url(#clipPath2)"/>
      <text x="1127.7034" xml:space="preserve" y="138.3555" clip-path="url(#clipPath2)" font-family="sans-serif" stroke="none">Conv 32@3x3</text>
      <text x="1104.1106" xml:space="preserve" y="152.9395" clip-path="url(#clipPath2)" font-family="sans-serif" stroke="none">ReLU + BatchNorm2d</text>
      <rect fill="none" x="1439.9474" width="93" height="42.25" y="119.75" clip-path="url(#clipPath2)"/>
      <text x="1467.9259" xml:space="preserve" y="145.6475" clip-path="url(#clipPath2)" font-family="sans-serif" stroke="none">Linear</text>
      <rect fill="none" x="1291.5684" width="128.6" height="42.25" y="119.75" clip-path="url(#clipPath2)"/>
      <text x="1297.2395" xml:space="preserve" y="138.3555" clip-path="url(#clipPath2)" font-family="sans-serif" stroke="none">AdaptiveMaxPool2d</text>
      <text x="1300.4563" xml:space="preserve" y="152.9395" clip-path="url(#clipPath2)" font-family="sans-serif" stroke="none">1x1 2x2, 4x4, 8x8</text>
    </g>
    <g fill="rgb(235,235,235)" text-rendering="geometricPrecision" shape-rendering="geometricPrecision" transform="matrix(1,0,0,1,-244,-92)" stroke="rgb(235,235,235)">
      <rect x="1330.8684" width="50" height="47.5" y="186.2138" clip-path="url(#clipPath2)" stroke="none"/>
    </g>
    <g text-rendering="geometricPrecision" stroke-miterlimit="1.45" shape-rendering="geometricPrecision" transform="matrix(1,0,0,1,-244,-92)" stroke-linecap="butt">
      <rect fill="none" x="1330.8684" width="50" height="47.5" y="186.2138" clip-path="url(#clipPath2)"/>
    </g>
    <g fill="rgb(235,235,235)" text-rendering="geometricPrecision" shape-rendering="geometricPrecision" transform="matrix(1,0,0,1,-244,-92)" stroke="rgb(235,235,235)">
      <rect x="1341.2684" width="29.2" height="27.74" y="247.9638" clip-path="url(#clipPath2)" stroke="none"/>
    </g>
    <g text-rendering="geometricPrecision" stroke-miterlimit="1.45" shape-rendering="geometricPrecision" transform="matrix(1,0,0,1,-244,-92)" stroke-linecap="butt">
      <rect fill="none" x="1341.2684" width="29.2" height="27.74" y="247.9638" clip-path="url(#clipPath2)"/>
    </g>
    <g fill="rgb(235,235,235)" text-rendering="geometricPrecision" shape-rendering="geometricPrecision" transform="matrix(1,0,0,1,-244,-92)" stroke="rgb(235,235,235)">
      <rect x="1347.2895" width="17.1579" height="16.3" y="289.8138" clip-path="url(#clipPath2)" stroke="none"/>
    </g>
    <g text-rendering="geometricPrecision" stroke-miterlimit="1.45" shape-rendering="geometricPrecision" transform="matrix(1,0,0,1,-244,-92)" stroke-linecap="butt">
      <rect fill="none" x="1347.2895" width="17.1579" height="16.3" y="289.8138" clip-path="url(#clipPath2)"/>
    </g>
    <g fill="rgb(235,235,235)" text-rendering="geometricPrecision" shape-rendering="geometricPrecision" transform="matrix(1,0,0,1,-244,-92)" stroke="rgb(235,235,235)">
      <rect x="1352.3421" width="7.0526" height="6.7" y="320.2238" clip-path="url(#clipPath2)" stroke="none"/>
    </g>
    <g text-rendering="geometricPrecision" stroke-miterlimit="1.45" shape-rendering="geometricPrecision" transform="matrix(1,0,0,1,-244,-92)" stroke-linecap="butt">
      <rect fill="none" x="1352.3421" width="7.0526" height="6.7" y="320.2238" clip-path="url(#clipPath2)"/>
    </g>
    <g fill="rgb(204,204,204)" text-rendering="geometricPrecision" shape-rendering="geometricPrecision" transform="matrix(1,0,0,1,-244,-92)" stroke="rgb(204,204,204)">
      <rect x="521.3" width="720.5" height="16.3" y="93.45" clip-path="url(#clipPath2)" stroke="none"/>
    </g>
    <g text-rendering="geometricPrecision" stroke-miterlimit="1.45" shape-rendering="geometricPrecision" transform="matrix(1,0,0,1,-244,-92)" stroke-linecap="butt">
      <rect fill="none" x="521.3" width="720.5" height="16.3" y="93.45" clip-path="url(#clipPath2)"/>
      <text x="868.384" xml:space="preserve" y="106.3725" clip-path="url(#clipPath2)" font-family="sans-serif" stroke="none">CNN</text>
    </g>
    <g fill="rgb(235,235,235)" text-rendering="geometricPrecision" shape-rendering="geometricPrecision" transform="matrix(1,0,0,1,-244,-92)" stroke="rgb(235,235,235)">
      <rect x="1291.5684" width="128.6" height="16.3" y="93.45" clip-path="url(#clipPath2)" stroke="none"/>
    </g>
    <g text-rendering="geometricPrecision" stroke-miterlimit="1.45" shape-rendering="geometricPrecision" transform="matrix(1,0,0,1,-244,-92)" stroke-linecap="butt">
      <rect fill="none" x="1291.5684" width="128.6" height="16.3" y="93.45" clip-path="url(#clipPath2)"/>
      <text x="1310.5637" xml:space="preserve" y="106.3725" clip-path="url(#clipPath2)" font-family="sans-serif" stroke="none">Spacial Pooling</text>
    </g>
    <g fill="gray" text-rendering="geometricPrecision" shape-rendering="geometricPrecision" transform="matrix(1,0,0,1,-244,-92)" stroke="gray">
      <rect x="393.8" width="115" height="16.3" y="93.45" clip-path="url(#clipPath2)" stroke="none"/>
    </g>
    <g text-rendering="geometricPrecision" stroke-miterlimit="1.45" shape-rendering="geometricPrecision" transform="matrix(1,0,0,1,-244,-92)" stroke-linecap="butt">
      <rect fill="none" x="393.8" width="115" height="16.3" y="93.45" clip-path="url(#clipPath2)"/>
      <text x="417.4387" xml:space="preserve" y="106.3725" clip-path="url(#clipPath2)" font-family="sans-serif" stroke="none">Recurrence</text>
    </g>
    <g fill="silver" text-rendering="geometricPrecision" shape-rendering="geometricPrecision" transform="matrix(1,0,0,1,-244,-92)" stroke="silver">
      <rect x="244.8" width="135" height="16.3" y="93.45" clip-path="url(#clipPath2)" stroke="none"/>
    </g>
    <g text-rendering="geometricPrecision" stroke-miterlimit="1.45" shape-rendering="geometricPrecision" transform="matrix(1,0,0,1,-244,-92)" stroke-linecap="butt">
      <rect fill="none" x="244.8" width="135" height="16.3" y="93.45" clip-path="url(#clipPath2)"/>
      <text x="296.0783" xml:space="preserve" y="106.3725" clip-path="url(#clipPath2)" font-family="sans-serif" stroke="none">Input</text>
    </g>
    <g fill="silver" text-rendering="geometricPrecision" shape-rendering="geometricPrecision" transform="matrix(1,0,0,1,-244,-92)" stroke="silver">
      <rect x="1439.9474" width="93" height="16.3" y="93.45" clip-path="url(#clipPath2)" stroke="none"/>
    </g>
    <g text-rendering="geometricPrecision" stroke-miterlimit="1.45" shape-rendering="geometricPrecision" transform="matrix(1,0,0,1,-244,-92)" stroke-linecap="butt">
      <rect fill="none" x="1439.9474" width="93" height="16.3" y="93.45" clip-path="url(#clipPath2)"/>
      <text x="1478.8097" xml:space="preserve" y="106.3725" clip-path="url(#clipPath2)" font-family="sans-serif" stroke="none">FC</text>
      <path fill="none" d="M503.2 288 L527.4 288" clip-path="url(#clipPath2)"/>
      <path fill="white" d="M542.4 288 L526.4 282 L526.4 294 Z" clip-path="url(#clipPath2)" stroke="none"/>
      <path fill="none" d="M542.4 288 L526.4 282 L526.4 294 Z" clip-path="url(#clipPath2)"/>
      <path fill="none" d="M632.7363 291.2215 L685.7363 291.2215" clip-path="url(#clipPath2)"/>
      <path fill="white" d="M700.7363 291.2215 L684.7363 285.2215 L684.7363 297.2215 Z" clip-path="url(#clipPath2)" stroke="none"/>
      <path fill="none" d="M700.7363 291.2215 L684.7363 285.2215 L684.7363 297.2215 Z" clip-path="url(#clipPath2)"/>
      <path fill="none" d="M844.8 288.8215 L893.8 288.8215" clip-path="url(#clipPath2)"/>
      <path fill="white" d="M908.8 288.8215 L892.8 282.8215 L892.8 294.8215 Z" clip-path="url(#clipPath2)" stroke="none"/>
      <path fill="none" d="M908.8 288.8215 L892.8 282.8215 L892.8 294.8215 Z" clip-path="url(#clipPath2)"/>
      <path fill="none" d="M1300.2933 208.7741 L1275.568 208.7741 L1275.568 183.521 L1111.8065 183.521" clip-path="url(#clipPath2)"/>
      <path fill="white" d="M1315.2933 208.7741 L1299.2933 202.7741 L1299.2933 214.7741 Z" clip-path="url(#clipPath2)" stroke="none"/>
      <path fill="none" d="M1315.2933 208.7741 L1299.2933 202.7741 L1299.2933 214.7741 Z" clip-path="url(#clipPath2)"/>
      <path fill="none" d="M1046.4 287.2215 L1092.2 287.2215" clip-path="url(#clipPath2)"/>
      <path fill="white" d="M1107.2 287.2215 L1091.2 281.2215 L1091.2 293.2215 Z" clip-path="url(#clipPath2)" stroke="none"/>
      <path fill="none" d="M1107.2 287.2215 L1091.2 281.2215 L1091.2 293.2215 Z" clip-path="url(#clipPath2)"/>
      <path fill="none" d="M342.4 285.6215 L371.4 285.6215" clip-path="url(#clipPath2)"/>
      <path fill="white" d="M386.4 285.6215 L370.4 279.6215 L370.4 291.6215 Z" clip-path="url(#clipPath2)" stroke="none"/>
      <path fill="none" d="M386.4 285.6215 L370.4 279.6215 L370.4 291.6215 Z" clip-path="url(#clipPath2)"/>
      <path fill="none" d="M1275.5914 342.9866 L1275.5914 208.838" clip-path="url(#clipPath2)"/>
      <path fill="none" stroke-dasharray="6,2" d="M1380.0674 186.2128 L1468.5968 184.2995" clip-path="url(#clipPath2)"/>
      <path fill="none" stroke-dasharray="6,2" d="M1380.908 233.2787 L1467.9318 214.89" clip-path="url(#clipPath2)"/>
      <path fill="none" d="M1300.3525 261.8338 L1275.6248 261.8338" clip-path="url(#clipPath2)"/>
      <path fill="white" d="M1315.3525 261.8338 L1299.3525 255.8338 L1299.3525 267.8338 Z" clip-path="url(#clipPath2)" stroke="none"/>
      <path fill="none" d="M1315.3525 261.8338 L1299.3525 255.8338 L1299.3525 267.8338 Z" clip-path="url(#clipPath2)"/>
      <path fill="none" stroke-dasharray="6,2" d="M1370.8534 276.2875 L1467.9116 266.387" clip-path="url(#clipPath2)"/>
      <path fill="none" stroke-dasharray="6,2" d="M1370.4943 249.2938 L1467.9281 216.2003" clip-path="url(#clipPath2)"/>
      <path fill="none" d="M1275.6884 297.9637 L1300.5608 297.9637" clip-path="url(#clipPath2)"/>
      <path fill="white" d="M1315.5608 297.9637 L1299.5608 291.9637 L1299.5608 303.9637 Z" clip-path="url(#clipPath2)" stroke="none"/>
      <path fill="none" d="M1315.5608 297.9637 L1299.5608 291.9637 L1299.5608 303.9637 Z" clip-path="url(#clipPath2)"/>
      <path fill="none" stroke-dasharray="6,2" d="M1364.4586 290.2332 L1467.9236 266.946" clip-path="url(#clipPath2)"/>
      <path fill="none" stroke-dasharray="6,2" d="M1364.4556 304.4431 L1467.9325 329.6497" clip-path="url(#clipPath2)"/>
      <path fill="none" d="M1275.6884 323.5738 L1301.0728 323.5738" clip-path="url(#clipPath2)"/>
      <path fill="white" d="M1316.0728 323.5738 L1300.0728 317.5738 L1300.0728 329.5738 Z" clip-path="url(#clipPath2)" stroke="none"/>
      <path fill="none" d="M1316.0728 323.5738 L1300.0728 317.5738 L1300.0728 329.5738 Z" clip-path="url(#clipPath2)"/>
      <path fill="none" stroke-dasharray="6,2" d="M1358.8279 327.5685 L1467.9227 415.6628" clip-path="url(#clipPath2)"/>
      <path fill="none" stroke-dasharray="6,2" d="M1359.3903 320.681 L1467.9331 330.1636" clip-path="url(#clipPath2)"/>
    </g>
  </g>
</svg>
